<svg width="16" height="16" viewBox="0 0 16 16" fill="none" xmlns="http://www.w3.org/2000/svg">
<path fill-rule="evenodd" clip-rule="evenodd" d="M7.49823 0.516121C9.28266 0.516121 10.7391 1.92157 10.8209 3.6858L10.8245 3.84237V4.54212C10.8245 4.85278 10.5726 5.10462 10.262 5.10462C9.97721 5.10462 9.74186 4.89301 9.70461 4.61845L9.69948 4.54212V3.84237C9.69948 2.6702 8.78297 1.71182 7.62756 1.64486L7.49823 1.64112H3.84198C2.67044 1.64112 1.71217 2.55772 1.64522 3.71305L1.64148 3.84237V12.1899C1.64148 13.362 2.55791 14.3204 3.71272 14.3874L3.84198 14.3911H7.50573C8.67375 14.3911 9.62901 13.4779 9.69575 12.327L9.69948 12.1981V11.4909C9.69948 11.1802 9.95132 10.9284 10.262 10.9284C10.5468 10.9284 10.7821 11.14 10.8193 11.4145L10.8245 11.4909V12.1981C10.8245 13.9765 9.42438 15.4284 7.66649 15.5123L7.50573 15.5161H3.84198C2.05815 15.5161 0.60186 14.1105 0.5201 12.3464L0.516479 12.1899V3.84237C0.516479 2.05808 1.9218 0.601518 3.68546 0.519742L3.84198 0.516121H7.49823ZM15.7464 7.60999C15.8531 7.71237 15.9196 7.85644 15.9196 8.01604C15.9196 8.1773 15.8517 8.32271 15.743 8.42528L13.5578 10.6015C13.3377 10.8208 12.9815 10.82 12.7623 10.5999C12.563 10.3998 12.5455 10.0873 12.7094 9.86738L12.764 9.8044L13.994 8.57855H6.32635C6.01569 8.57855 5.76385 8.3267 5.76385 8.01604C5.76385 7.73127 5.97546 7.49593 6.25002 7.45868L6.32635 7.45354H13.9953L12.764 6.22835C12.5639 6.0291 12.545 5.71664 12.7079 5.49607L12.7622 5.43286C12.9615 5.23271 13.274 5.21386 13.4945 5.37676L13.5577 5.43109L15.7464 7.60999Z" fill="#A6ABB2"/>
</svg>
