<svg width="16" height="16" viewBox="0 0 16 16" fill="none" xmlns="http://www.w3.org/2000/svg">
<path fill-rule="evenodd" clip-rule="evenodd" d="M3.06569 14.525C3.26369 14.8948 3.64994 15.1257 4.06994 15.125C4.24694 15.1257 4.42244 15.0845 4.57994 15.005L7.99394 13.22C8.00294 13.2147 8.01344 13.2118 8.02394 13.2125L11.4147 14.9825C11.5789 15.071 11.7627 15.1168 11.9487 15.116C12.0079 15.116 12.0679 15.1107 12.1264 15.1025C12.7369 15.0027 13.1539 14.4313 13.0639 13.82L12.4039 10.0625C12.4001 10.057 12.3991 10.0567 12.3988 10.0561C12.3987 10.0559 12.3987 10.0556 12.3987 10.055C12.3987 10.0527 12.4039 10.0475 12.4039 10.0475L15.1564 7.385C15.5629 6.99275 15.6147 6.3605 15.2764 5.9075C15.0927 5.6705 14.8234 5.5145 14.5264 5.4725L10.7299 4.925C10.7232 4.925 10.7157 4.9175 10.7082 4.91L9.01244 1.505C8.82119 1.12025 8.42969 0.87725 7.99994 0.875C7.87544 0.875 7.75094 0.8945 7.63244 0.935C7.34819 1.03175 7.11344 1.23575 6.97994 1.505L5.28644 4.90025C5.28644 4.916 5.27069 4.92275 5.25569 4.92275L1.46819 5.47025C1.23644 5.50925 1.02044 5.61275 0.845689 5.77025C0.624439 5.987 0.499939 6.28475 0.499939 6.59525C0.500689 6.89 0.619189 7.172 0.829939 7.3775L3.60494 10.0475C3.61094 10.0535 3.61319 10.0618 3.61319 10.07L2.94494 13.8125C2.90519 14.057 2.94794 14.3075 3.06569 14.525ZM7.97819 1.97525L7.98569 1.97H7.99994L8.00669 1.97675C8.01344 1.97675 8.01944 1.97825 8.02469 1.98275C8.02919 1.98725 8.03144 1.99325 8.03069 2L9.72569 5.38925C9.88844 5.723 10.2049 5.9555 10.5724 6.01175L14.3689 6.56375C14.3757 6.56375 14.3824 6.56525 14.3884 6.56825C14.3922 6.569 14.3952 6.569 14.3989 6.56825L14.4064 6.575L14.3989 6.5915L11.6464 9.26075C11.3727 9.51725 11.2504 9.89675 11.3232 10.265L11.9839 14.0007L11.9689 14.015H11.9532C11.9502 14.0165 11.9472 14.0165 11.9442 14.015C11.9367 14.0142 11.9292 14.0112 11.9224 14.0075H11.9157L8.54069 12.245C8.37869 12.161 8.19869 12.116 8.01569 12.1167C7.82744 12.1167 7.64144 12.164 7.47494 12.2525L4.07819 14.0337C4.07444 14.0345 4.06994 14.0345 4.06619 14.0337C4.05044 14.0337 4.03694 14.0232 4.03319 14.0082V13.9932L4.69319 10.2582C4.75469 9.893 4.63469 9.52025 4.37069 9.26075L1.59569 6.59825C1.59494 6.587 1.59644 6.57725 1.60244 6.5675L1.64819 6.5525L5.42069 6.01175C5.78819 5.95475 6.10394 5.723 6.26744 5.38925L7.96319 1.99175C7.96694 1.985 7.97144 1.979 7.97819 1.97525Z" fill="#A6ABB2"/>
</svg>
